#!OML:ASF H:\ManfredETheater\Project 1\Capture day 1\Session 1\subject.ASF
:FULLY-SPECIFIED
:DEGREES
309
root -2.91402 15.7535 -44.4549 194.756 -2.22858 -179.763
lowerback 22.2463 -0.380787 -0.746605
upperback 2.12283 -0.975077 1.70217
thorax -10.0792 -0.584109 2.64033
lowerneck -13.1198 -4.28424 -4.84704
upperneck -0.400863 -4.91461 5.94195
head 2.49094 -2.12277 2.5136
rclavicle -1.40143e-014 -4.57205e-015
rhumerus -53.8053 -8.54744 -76.639
rradius 67.7949
rwrist -13.6339
rhand -29.6146 -11.9562
rfingers 7.12502
rthumb -2.94526 -41.9156
lclavicle -1.40143e-014 -4.57205e-015
lhumerus -28.0051 -13.3478 91.2172
lradius 95.5873
lwrist -6.58164
lhand -30.2856 -6.34263
lfingers 7.12502
lthumb -3.59327 23.6068
rfemur -57.6034 -16.3282 16.4678
rtibia 86.8938
rfoot -14.8617 -15.5934
rtoes -29.4462
lfemur -20.014 -2.47873 -7.56984
ltibia 63.562
lfoot -35.6009 -12.8712
ltoes -20.1076
310
root -2.91686 15.7515 -44.6419 195.144 -2.03589 -179.987
lowerback 22.3249 -0.422146 -0.874095
upperback 2.12428 -1.06502 1.67992
thorax -10.1144 -0.621602 2.71849
lowerneck -13.327 -4.178 -4.80303
upperneck -0.60655 -4.73728 5.83872
head 2.443 -2.02656 2.48078
rclavicle 1.68967e-015 5.56597e-015
rhumerus -55.0487 -8.39338 -76.4414
rradius 68.4613
rwrist -13.5926
rhand -29.6461 -11.4245
rfingers 7.12502
rthumb -2.97564 -41.3835
lclavicle 1.68967e-015 5.56597e-015
lhumerus -27.3196 -13.0602 91.514
lradius 96.3331
lwrist -6.90799
lhand -30.4597 -6.84618
lfingers 7.12502
lthumb -3.76141 23.1004
rfemur -59.9198 -17.1745 18.0736
rtibia 87.6064
rfoot -15.6356 -14.3008
rtoes -31.5426
lfemur -19.0477 -2.64625 -7.99498
ltibia 62.3947
lfoot -35.7005 -12.3782
ltoes -20.3866
311
root -2.9171 15.7561 -44.8353 195.554 -1.82985 -180.237
lowerback 22.4185 -0.477248 -1.00531
upperback 2.11134 -1.17233 1.66273
thorax -10.1723 -0.665868 2.81066
lowerneck -13.5387 -4.04625 -4.72057
upperneck -0.81635 -4.5291 5.69192
head 2.38998 -1.91601 2.42823
rclavicle -9.93923e-015 -1.86858e-014
rhumerus -56.2859 -8.22937 -76.2721
rradius 69.2762
rwrist -13.496
rhand -29.6059 -10.7943
rfingers 7.12502
rthumb -2.93688 -40.7538
lclavicle -9.93923e-015 -1.86858e-014
lhumerus -26.8047 -12.8163 91.8154
lradius 97.043
lwrist -7.06213
lhand -30.7556 -7.37104
lfingers 7.12502
lthumb -4.04711 22.5703
rfemur -62.2173 -17.8687 19.7093
rtibia 87.9936
rfoot -16.3935 -13.0692
rtoes -33.234
lfemur -18.0678 -2.82468 -8.44644
ltibia 61.134
lfoot -35.6372 -11.9401
ltoes -20.685
312
root -2.91521 15.7693 -45.0375 195.979 -1.61799 -180.469
lowerback 22.5134 -0.546731 -1.08651
upperback 2.08698 -1.28372 1.66348
thorax -10.2437 -0.713018 2.89588
lowerneck -13.7637 -3.89073 -4.60251
upperneck -1.01835 -4.29235 5.48485
head 2.33758 -1.79294 2.35071
rclavicle -5.96354e-016 5.96354e-015
rhumerus -57.4952 -8.06962 -76.1146
rradius 70.1935
rwrist -13.3872
rhand -29.5002 -10.1046
rfingers 7.12502
rthumb -2.83481 -40.0655
lclavicle -5.96354e-016 5.96354e-015
lhumerus -26.4661 -12.6439 92.1255
lradius 97.7185
lwrist -7.04415
lhand -31.1671 -7.868
lfingers 7.12502
lthumb -4.4445 22.0654
rfemur -64.431 -18.393 21.3899
rtibia 88.0274
rfoot -17.1078 -11.883
rtoes -34.6897
lfemur -17.051 -3.01029 -8.87761
ltibia 59.7669
lfoot -35.4136 -11.5613
ltoes -21.0446
313
root -2.91064 15.7879 -45.2465 196.439 -1.38526 -180.669
lowerback 22.6008 -0.626316 -1.12318
upperback 2.04228 -1.39319 1.6816
thorax -10.3341 -0.759204 2.97479
lowerneck -14.0259 -3.70677 -4.43805
upperneck -1.18872 -4.02328 5.2126
head 2.29817 -1.6556 2.24502
rclavicle 4.87022e-015 1.98785e-016
rhumerus -58.6549 -7.91663 -75.9814
rradius 71.1597
rwrist -13.2939
rhand -29.3687 -9.37261
rfingers 7.12502
rthumb -2.70783 -39.3352
lclavicle 4.87022e-015 1.98785e-016
lhumerus -26.2899 -12.5531 92.4166
lradius 98.3425
lwrist -6.86269
lhand -31.675 -8.29087
lfingers 7.12502
lthumb -4.93497 21.6317
rfemur -66.5635 -18.7013 23.0924
rtibia 87.7238
rfoot -17.7929 -10.685
rtoes -35.9591
lfemur -16.029 -3.18137 -9.26986
ltibia 58.302
lfoot -35.0174 -11.2481
ltoes -21.4297
314
root -2.90375 15.813 -45.4644 196.921 -1.11985 -180.835
lowerback 22.6737 -0.713041 -1.11464
upperback 1.98354 -1.49756 1.71325
thorax -10.4332 -0.803601 3.04141
lowerneck -14.2782 -3.50564 -4.26318
upperneck -1.35456 -3.73423 4.91516
head 2.25771 -1.50966 2.13089
rclavicle -1.48095e-014 7.35503e-015
rhumerus -59.7461 -7.76054 -75.8806
rradius 72.1238
rwrist -13.2394
rhand -29.2445 -8.64452
rfingers 7.12502
rthumb -2.58784 -38.6086
lclavicle -1.48095e-014 7.35503e-015
lhumerus -26.2709 -12.5536 92.6719
lradius 98.9057
lwrist -6.5464
lhand -32.2298 -8.59923
lfingers 7.12502
lthumb -5.47059 21.3102
rfemur -68.5394 -18.7877 24.7651
rtibia 87.0811
rfoot -18.4798 -9.41827
rtoes -37.0971
lfemur -14.9654 -3.34138 -9.63459
ltibia 56.7257
lfoot -34.4457 -10.9811
ltoes -21.8384
315
root -2.89424 15.8463 -45.6917 197.431 -0.845742 -180.946
lowerback 22.693 -0.81554 -1.01616
upperback 1.9253 -1.59828 1.75278
thorax -10.5048 -0.850397 3.06223
lowerneck -14.5775 -3.30085 -4.04968
upperneck -1.4854 -3.44613 4.58388
head 2.23719 -1.36493 1.99884
rclavicle 1.39149e-015 -2.44505e-014
rhumerus -60.7303 -7.62418 -75.8333
rradius 73.0368
rwrist -13.2173
rhand -29.1559 -7.96834
rfingers 7.12502
rthumb -2.50231 -37.9334
lclavicle 1.39149e-015 -2.44505e-014
lhumerus -26.369 -12.6623 92.8703
lradius 99.3888
lwrist -6.13225
lhand -32.7939 -8.7877
lfingers 7.12502
lthumb -6.01528 21.1069
rfemur -70.316 -18.6886 26.4092
rtibia 86.1066
rfoot -19.2351 -8.00325
rtoes -38.2418
lfemur -13.8758 -3.50214 -9.94214
ltibia 55.0442
lfoot -33.6843 -10.7655
ltoes -22.246
316
root -2.88193 15.8864 -45.9283 197.971 -0.555768 -181.03
lowerback 22.6616 -0.927956 -0.867357
upperback 1.86353 -1.69774 1.79249
thorax -10.5543 -0.898808 3.05214
lowerneck -14.899 -3.09536 -3.81909
upperneck -1.59049 -3.16156 4.23894
head 2.23063 -1.22271 1.85973
rclavicle 3.57812e-015 -1.41137e-014
rhumerus -61.6028 -7.51017 -75.8384
rradius 73.8718
rwrist -13.2138
rhand -29.1239 -7.35533
rfingers 7.12502
rthumb -2.47139 -37.3208
lclavicle 3.57812e-015 -1.41137e-014
lhumerus -26.5745 -12.8703 93.0147
lradius 99.7665
lwrist -5.66029
lhand -33.3195 -8.89259
lfingers 7.12502
lthumb -6.52266 20.987
rfemur -71.8781 -18.4247 27.9596
rtibia 84.837
rfoot -19.958 -6.45686
rtoes -39.2518
lfemur -12.7645 -3.67651 -10.2314
ltibia 53.264
lfoot -32.7098 -10.5857
ltoes -22.6387
317
root -2.86622 15.9323 -46.1731 198.537 -0.256734 -181.097
lowerback 22.5796 -1.04925 -0.6725
upperback 1.80534 -1.79769 1.82351
thorax -10.5741 -0.950248 3.00387
lowerneck -15.249 -2.90274 -3.58342
upperneck -1.67139 -2.89699 3.90754
head 2.24045 -1.09008 1.72379
rclavicle 2.22639e-014 -9.34288e-015
rhumerus -62.344 -7.42806 -75.9108
rradius 74.5991
rwrist -13.2227
rhand -29.1385 -6.82787
rfingers 7.12502
rthumb -2.48548 -36.7931
lclavicle 2.22639e-014 -9.34288e-015
lhumerus -26.8551 -13.1655 93.087
lradius 100.033
lwrist -5.24252
lhand -33.7308 -8.76393
lfingers 7.12502
lthumb -6.9197 21.103
rfemur -73.2174 -18.0184 29.3921
rtibia 83.3132
rfoot -20.6136 -4.81814
rtoes -40.1815
lfemur -11.6515 -3.8667 -10.5065
ltibia 51.4098
lfoot -31.4932 -10.4259
ltoes -23.0542
318
root -2.84775 15.9832 -46.4278 199.107 0.0318598 -181.181
lowerback 22.4516 -1.18498 -0.444177
upperback 1.75508 -1.91062 1.83461
thorax -10.5615 -1.01046 2.91585
lowerneck -15.5994 -2.72595 -3.35039
upperneck -1.74613 -2.65581 3.60078
head 2.25584 -0.968655 1.59579
rclavicle 2.60408e-014 -1.37161e-014
rhumerus -62.9607 -7.38406 -76.0481
rradius 75.2094
rwrist -13.2385
rhand -29.1888 -6.36886
rfingers 7.12502
rthumb -2.53401 -36.3336
lclavicle 2.60408e-014 -1.37161e-014
lhumerus -27.2084 -13.5522 93.1092
lradius 100.145
lwrist -4.81905
lhand -34.0197 -8.62833
lfingers 7.12502
lthumb -7.19857 21.2292
rfemur -74.2966 -17.5499 30.6494
rtibia 81.6141
rfoot -21.1739 -3.09072
rtoes -40.943
lfemur -10.5232 -4.10439 -10.8073
ltibia 49.5141
lfoot -30.0237 -10.2819
ltoes -23.4503
319
root -2.82603 16.0383 -46.6916 199.675 0.301713 -181.298
lowerback 22.2877 -1.84232 -0.405199
upperback 1.72836 -1.90121 1.8071
thorax -10.5011 -0.651598 2.78734
lowerneck -15.9153 -2.57011 -3.12886
upperneck -1.8387 -2.44363 3.32308
head 2.26236 -0.861192 1.47817
rclavicle 1.59028e-014 6.36111e-015
rhumerus -63.4622 -7.39952 -76.241
rradius 75.6966
rwrist -13.2556
rhand -29.2605 -5.95689
rfingers 7.12502
rthumb -2.60325 -35.9208
lclavicle 1.59028e-014 6.36111e-015
lhumerus -27.6277 -14.023 93.1031
lradius 100.098
lwrist -4.46908
lhand -34.13 -8.44828
lfingers 7.12502
lthumb -7.30504 21.4056
rfemur -75.121 -17.0491 31.7094
rtibia 79.8141
rfoot -21.5451 -1.44012
rtoes -41.5495
lfemur -9.41112 -4.39214 -11.1442
ltibia 47.6238
lfoot -28.29 -10.1475
ltoes -23.8278
